<?xml version="1.0" standalone="no"?>
<!DOCTYPE svg PUBLIC "-//W3C//DTD SVG 20010904//EN"
 "http://www.w3.org/TR/2001/REC-SVG-20010904/DTD/svg10.dtd">
<svg version="1.0" xmlns="http://www.w3.org/2000/svg"
 width="257.000000pt" height="257.000000pt" viewBox="0 0 257.000000 257.000000"
 preserveAspectRatio="xMidYMid meet">
<metadata>
Created by potrace 1.14, written by Peter Selinger 2001-2017
</metadata>
<g transform="translate(0.000000,257.000000) scale(0.100000,-0.100000)"
fill="#000000" stroke="none">
<path d="M50 1295 l0 -1235 1235 0 1235 0 0 1235 0 1235 -1235 0 -1235 0 0
-1235z m1450 805 c56 -29 111 -90 150 -167 44 -90 59 -149 67 -268 4 -65 12
-112 24 -136 9 -19 25 -73 33 -119 24 -126 33 -124 46 10 10 103 26 133 69
128 26 -3 26 -5 33 -113 6 -97 5 -118 -14 -174 -24 -73 -44 -94 -96 -101 -36
-5 -37 -6 -43 -55 -10 -76 -48 -168 -95 -231 -13 -17 -24 -42 -24 -55 0 -35
53 -140 86 -170 81 -74 103 -32 56 105 -36 105 -47 171 -34 205 7 21 10 15 15
-36 8 -77 33 -143 79 -210 31 -45 35 -57 29 -85 -33 -143 -224 -328 -455 -438
-124 -59 -122 -59 -225 -6 -146 73 -242 153 -257 213 -4 15 2 66 14 117 12 50
23 116 24 146 1 50 -3 61 -35 105 -74 101 -135 237 -156 345 -27 138 -36 368
-16 399 13 22 80 31 165 21 46 -5 85 -8 86 -7 2 1 6 27 10 56 l7 54 -112 -5
c-95 -4 -116 -8 -141 -27 l-30 -22 1 53 c2 143 15 226 48 292 37 76 80 113
142 124 41 7 46 6 76 -26 31 -32 36 -34 84 -30 36 4 84 23 167 66 129 66 162
73 222 42z"/>
<path d="M1275 1649 c-33 -12 -61 -22 -63 -24 -2 -2 2 -22 8 -45 9 -33 15 -40
28 -34 64 27 97 33 170 34 46 0 112 -7 148 -16 68 -18 85 -14 68 14 -50 79
-230 115 -359 71z"/>
<path d="M1174 1174 c-18 -14 -18 -15 6 -8 31 8 50 24 29 24 -8 0 -24 -7 -35
-16z"/>
<path d="M1030 1166 c0 -2 14 -9 31 -15 27 -9 30 -9 19 4 -11 13 -50 22 -50
11z"/>
<path d="M1185 1020 c-16 -4 -57 -8 -90 -9 -80 -2 -101 -8 -113 -37 -11 -23
-9 -24 54 -44 101 -31 178 -27 255 13 34 17 64 37 66 43 3 8 -124 48 -138 43
-2 -1 -17 -5 -34 -9z"/>
<path d="M1053 644 c3 -10 10 -41 17 -69 17 -75 66 -210 76 -208 16 3 22 46
23 153 l1 105 -42 11 c-24 6 -51 15 -62 19 -15 7 -17 4 -13 -11z"/>
</g>
</svg>
