<?xml version="1.0" standalone="no"?>
<!DOCTYPE svg PUBLIC "-//W3C//DTD SVG 20010904//EN"
 "http://www.w3.org/TR/2001/REC-SVG-20010904/DTD/svg10.dtd">
<svg version="1.0" xmlns="http://www.w3.org/2000/svg"
 width="1312.000000pt" height="1312.000000pt" viewBox="0 0 1312.000000 1312.000000"
 preserveAspectRatio="xMidYMid meet">
<metadata>
Created by potrace 1.14, written by Peter Selinger 2001-2017
</metadata>
<g transform="translate(0.000000,1312.000000) scale(0.100000,-0.100000)"
fill="#000000" stroke="none">
<path d="M6460 9781 c-8 -6 -18 -7 -22 -5 -4 3 -8 -3 -9 -13 0 -10 -2 -26 -5
-35 -2 -10 -6 -26 -8 -35 -3 -10 -5 -18 -6 -18 -1 0 -4 -11 -5 -25 -2 -14 -11
-52 -20 -85 -8 -33 -22 -89 -30 -125 -9 -36 -17 -72 -19 -80 -4 -13 -30 -121
-42 -172 -2 -10 -6 -27 -9 -38 -3 -11 -7 -29 -10 -40 -12 -47 -16 -66 -21 -89
-3 -13 -12 -51 -20 -85 -8 -34 -16 -68 -18 -76 -2 -8 -16 -64 -31 -125 -15
-60 -29 -121 -31 -134 -3 -14 -7 -28 -10 -33 -3 -5 -7 -21 -9 -36 -2 -15 -21
-102 -43 -192 -52 -215 -56 -234 -54 -242 1 -5 -2 -8 -6 -8 -4 0 -8 -10 -9
-22 -1 -13 -4 -33 -7 -45 -3 -13 -8 -32 -11 -44 -2 -11 -6 -28 -9 -37 -3 -9
-7 -28 -10 -42 -3 -14 -16 -70 -30 -125 -14 -55 -28 -114 -31 -132 -3 -18 -10
-44 -15 -58 -6 -15 -8 -31 -4 -36 3 -5 0 -9 -5 -9 -6 0 -10 -3 -9 -7 2 -9 -16
-109 -21 -115 -2 -2 -4 -12 -6 -23 -3 -11 -18 -74 -34 -140 -16 -66 -27 -123
-25 -127 3 -5 0 -8 -7 -8 -7 0 -10 -2 -7 -6 3 -3 -2 -36 -12 -75 -10 -38 -16
-69 -13 -69 3 0 0 -7 -7 -15 -7 -8 -10 -15 -7 -15 3 0 1 -16 -5 -36 -5 -20
-11 -44 -13 -53 -2 -9 -10 -43 -19 -77 -8 -33 -18 -71 -20 -85 -2 -13 -5 -24
-6 -24 -1 0 -3 -9 -5 -20 -2 -11 -13 -58 -25 -105 -11 -47 -37 -152 -56 -235
-20 -82 -37 -158 -40 -167 -2 -10 -6 -26 -8 -35 -2 -10 -12 -45 -21 -78 -9
-33 -17 -67 -17 -75 0 -8 -7 -38 -15 -67 -8 -29 -16 -62 -18 -75 -3 -13 -16
-68 -30 -123 -14 -55 -28 -111 -30 -125 -2 -14 -7 -34 -9 -45 -10 -39 -57
-230 -63 -255 -3 -14 -6 -32 -7 -40 -1 -9 -5 -20 -8 -25 -5 -9 -19 -70 -23
-100 -1 -5 -5 -22 -9 -36 -4 -14 -9 -34 -11 -45 -2 -10 -4 -19 -5 -19 -1 0 -3
-11 -6 -24 -2 -13 -13 -59 -24 -101 -11 -42 -22 -88 -24 -101 -3 -13 -5 -24
-6 -24 -2 0 -7 -24 -15 -70 -4 -22 -10 -44 -13 -50 -4 -5 -8 -19 -9 -30 -2
-11 -17 -76 -33 -145 -17 -69 -32 -134 -34 -146 -2 -11 -11 -43 -19 -70 -8
-27 -13 -57 -11 -66 1 -10 -3 -18 -9 -18 -5 0 -8 -3 -4 -6 3 -3 2 -17 -4 -31
-5 -13 -11 -38 -14 -56 -3 -18 -11 -50 -16 -72 -6 -22 -13 -47 -14 -55 -2 -8
-13 -55 -25 -105 -12 -49 -23 -97 -25 -105 -2 -8 -4 -17 -5 -20 -1 -3 -2 -8
-1 -12 0 -4 -4 -19 -9 -33 -10 -26 -19 -69 -24 -112 -3 -21 1 -23 38 -24 48 0
702 0 762 0 44 1 50 8 61 61 2 14 13 57 23 95 10 39 21 81 23 95 3 14 12 52
20 85 9 33 18 71 21 85 5 26 13 58 21 88 8 32 27 107 31 127 2 11 6 29 9 40 2
11 20 84 40 163 19 79 37 153 40 165 2 12 11 51 20 87 9 36 18 72 20 80 2 8
18 71 35 140 17 69 33 136 36 150 3 14 7 33 10 42 3 9 7 26 9 37 8 35 12 50
49 204 20 81 38 158 40 170 3 12 5 22 6 22 2 0 7 22 15 60 3 17 8 38 11 47 3
9 7 26 9 37 6 25 6 26 40 161 14 58 28 116 31 130 3 14 12 52 21 85 17 66 22
90 28 120 2 11 15 65 29 120 26 100 31 122 41 173 3 15 9 36 12 47 9 28 13 44
27 110 2 11 21 85 41 165 20 80 38 156 41 169 3 13 12 51 20 85 8 34 17 69 19
79 2 10 6 26 9 35 3 9 7 28 10 42 3 14 17 72 31 130 14 58 27 112 28 120 2 8
6 21 10 28 5 6 6 12 3 12 -2 0 0 15 5 33 6 17 12 41 14 52 2 11 6 31 10 45 3
14 8 36 11 50 3 14 9 39 15 57 5 17 12 44 15 60 3 15 16 71 30 123 14 52 26
104 29 115 5 29 10 49 50 215 20 82 38 157 40 167 2 10 4 18 5 18 2 0 6 18 15
64 3 19 8 38 10 41 3 4 7 25 11 46 3 22 10 44 15 50 5 6 7 13 4 15 -2 3 2 27
11 54 8 28 17 62 19 77 3 15 17 74 31 130 14 57 27 112 29 124 3 11 23 93 45
181 22 89 45 183 51 210 11 47 17 74 24 103 2 8 4 15 5 15 1 0 3 9 5 20 2 11
5 29 8 40 38 155 58 246 58 252 -2 12 -50 22 -57 12 -3 -5 -10 -6 -16 -3 -13
8 -228 8 -236 0 -3 -3 -11 -1 -18 5 -9 7 -19 7 -33 -1 -12 -6 -21 -7 -21 -3 0
6 -142 8 -160 2 -3 -1 -9 0 -15 1 -22 5 -225 1 -234 -4 -5 -4 -12 -2 -16 4 -8
12 -16 12 -35 1z"/>
<path d="M4325 8814 c-121 -52 -236 -103 -255 -111 -19 -9 -39 -18 -45 -19 -5
-1 -109 -46 -230 -99 -121 -53 -224 -97 -230 -99 -5 -1 -35 -14 -65 -28 -30
-14 -100 -44 -155 -68 -118 -50 -138 -58 -230 -100 -38 -18 -74 -33 -80 -35
-11 -2 -54 -21 -154 -66 -35 -16 -69 -29 -76 -29 -7 0 -18 -7 -25 -15 -7 -9
-15 -13 -18 -10 -3 3 -11 0 -19 -6 -7 -6 -13 -8 -13 -4 0 4 -6 3 -12 -3 -7 -6
-62 -31 -123 -57 -159 -68 -159 -68 -167 -67 -5 1 -8 -2 -8 -8 0 -6 -3 -9 -7
-8 -9 2 -43 -12 -131 -52 -35 -17 -65 -30 -66 -30 -2 0 -21 -8 -42 -17 -22 -9
-41 -17 -44 -18 -3 -1 -21 -9 -40 -18 -19 -8 -120 -52 -225 -97 -104 -45 -203
-88 -220 -95 -33 -15 -100 -44 -172 -76 -27 -11 -57 -24 -68 -29 -72 -32 -160
-70 -175 -75 -8 -3 -83 -35 -115 -50 -32 -14 -87 -37 -95 -40 -3 -1 -36 -16
-74 -33 -38 -18 -70 -32 -71 -32 -1 0 -20 -8 -41 -17 -22 -9 -41 -17 -44 -18
-5 -2 -58 -25 -125 -55 -22 -10 -69 -30 -105 -45 -36 -15 -71 -32 -78 -37 -6
-6 -12 -8 -12 -4 0 15 -65 -33 -66 -50 -1 -10 -3 -23 -4 -29 -1 -5 -1 -12 0
-15 7 -16 3 -160 -4 -160 -5 0 -3 -7 4 -15 9 -11 9 -15 1 -15 -7 0 -9 -5 -4
-12 11 -19 10 -112 -2 -120 -7 -5 -7 -10 0 -15 12 -9 14 -93 2 -93 -4 0 -5 -6
-1 -12 12 -19 12 -48 0 -48 -7 0 -7 -3 -1 -8 12 -8 14 -92 2 -92 -4 0 -5 -6
-1 -12 11 -18 12 -211 1 -225 -6 -8 -6 -13 -1 -13 5 0 9 -22 8 -48 -2 -47 -1
-49 35 -62 20 -7 69 -28 109 -46 41 -19 75 -34 77 -34 3 0 34 -13 70 -30 36
-16 67 -30 70 -30 2 0 38 -16 79 -35 42 -19 79 -35 84 -35 4 0 21 -7 37 -16
17 -9 57 -27 90 -41 33 -14 80 -34 105 -45 25 -11 59 -26 75 -33 17 -7 50 -22
75 -33 25 -11 86 -37 135 -58 50 -21 93 -43 97 -48 4 -6 8 -7 8 -2 0 4 11 1
25 -8 13 -9 29 -16 34 -16 10 0 92 -35 160 -68 19 -9 36 -16 38 -15 1 2 23 -9
48 -22 25 -14 48 -25 52 -25 5 0 55 -20 113 -46 124 -54 142 -62 240 -104 41
-18 99 -43 128 -56 29 -13 57 -24 62 -24 6 0 10 -5 10 -11 0 -5 5 -7 10 -4 6
4 18 1 26 -6 9 -7 21 -14 28 -15 6 -1 39 -15 74 -32 34 -17 62 -28 62 -25 0 3
11 -2 25 -11 13 -9 31 -16 39 -16 8 0 16 -4 18 -10 2 -5 12 -11 23 -13 11 -2
52 -18 90 -36 39 -19 75 -34 80 -35 6 -1 33 -13 60 -25 28 -13 64 -29 80 -36
17 -7 56 -25 88 -39 32 -14 59 -26 61 -26 2 0 30 -12 62 -27 33 -15 61 -27 64
-27 3 -1 21 -9 40 -17 19 -9 69 -31 110 -49 41 -18 93 -40 115 -50 22 -10 105
-46 185 -80 80 -34 163 -71 185 -80 132 -59 504 -219 523 -225 12 -3 22 -10
22 -15 0 -5 6 -7 13 -5 9 4 12 127 10 573 -2 662 0 602 -15 602 -9 0 -218 81
-283 110 -33 14 -540 214 -545 215 -3 0 -11 4 -17 8 -7 5 -13 5 -13 1 0 -4 -8
0 -17 8 -10 8 -39 21 -65 28 -27 7 -48 17 -48 21 0 5 -10 9 -23 9 -13 0 -27 4
-32 9 -6 5 -37 18 -70 30 -33 12 -69 25 -80 30 -54 24 -94 40 -140 57 -27 10
-59 23 -70 30 -11 7 -23 13 -27 14 -15 0 -27 4 -63 19 -38 16 -485 193 -590
234 -44 17 -82 34 -85 37 -3 3 -12 6 -20 8 -14 2 -161 60 -227 88 -17 8 -35
14 -40 14 -4 1 -26 9 -48 20 -22 11 -43 19 -47 20 -4 0 -19 5 -35 12 -15 6
-30 12 -33 13 -3 1 -18 7 -35 14 -42 19 -60 26 -148 59 l-79 29 79 31 c127 51
138 55 148 57 10 3 140 53 180 70 11 5 25 10 30 10 6 1 24 8 40 15 37 15 91
36 220 85 55 21 111 42 125 48 14 6 30 11 35 12 6 2 62 23 125 48 63 25 223
87 355 137 132 50 254 97 270 104 42 19 109 40 118 38 4 -1 7 2 7 8 0 5 6 10
14 10 8 0 46 13 85 29 39 16 71 27 71 25 0 -3 10 1 23 8 12 7 24 13 27 14 3 0
14 4 25 9 43 18 251 97 260 99 6 2 21 8 35 13 14 6 49 19 78 29 28 10 52 22
52 27 0 4 4 6 10 2 5 -3 17 -1 27 5 35 19 121 49 127 43 3 -4 6 -1 6 5 0 7 7
12 15 12 8 0 23 4 33 9 9 6 73 31 142 57 69 26 127 49 129 51 6 5 7 1173 1
1173 -3 -1 -104 -44 -225 -96z"/>
<path d="M7687 8333 c1 -313 2 -573 2 -579 1 -6 45 -28 99 -48 53 -21 106 -41
117 -46 16 -7 249 -97 350 -136 11 -4 23 -6 28 -6 4 1 7 -3 7 -8 0 -5 3 -9 8
-8 6 2 185 -64 322 -119 14 -6 45 -18 70 -28 25 -9 59 -23 75 -30 17 -7 80
-32 140 -55 61 -23 119 -45 130 -50 11 -4 40 -16 65 -25 25 -9 56 -22 70 -28
14 -6 27 -11 30 -11 3 -1 43 -16 90 -35 47 -18 126 -49 175 -68 120 -46 216
-83 240 -94 11 -4 81 -31 155 -60 74 -28 149 -57 165 -64 34 -15 189 -75 280
-108 33 -12 63 -26 67 -32 4 -5 8 -7 8 -2 0 4 13 1 29 -7 16 -9 31 -12 35 -9
3 4 6 0 6 -7 0 -7 3 -10 7 -7 3 4 12 2 20 -4 7 -6 13 -8 13 -4 0 4 11 0 25 -9
13 -9 31 -16 39 -16 8 0 17 -4 20 -8 5 -8 -169 -82 -193 -82 -6 0 -11 -5 -11
-12 0 -6 -3 -9 -6 -6 -3 4 -22 -1 -42 -9 -75 -31 -87 -36 -97 -39 -5 -1 -28
-10 -50 -20 -22 -10 -49 -19 -59 -21 -11 -2 -24 -7 -30 -11 -6 -5 -33 -17 -61
-27 -27 -10 -70 -27 -95 -38 -24 -10 -51 -21 -60 -22 -8 -2 -16 -4 -17 -5 -2
-2 -6 -3 -10 -5 -5 -1 -25 -9 -45 -18 -21 -10 -43 -17 -51 -17 -7 0 -17 -4
-22 -9 -6 -5 -41 -21 -80 -36 -175 -67 -251 -97 -270 -105 -11 -5 -94 -38
-185 -73 -91 -35 -174 -67 -185 -72 -11 -4 -24 -9 -30 -11 -5 -1 -32 -12 -60
-25 -27 -12 -56 -21 -62 -20 -7 1 -13 -2 -13 -7 0 -5 -6 -9 -12 -9 -12 0 -122
-43 -208 -81 -19 -8 -41 -15 -47 -15 -7 0 -13 -4 -13 -9 0 -5 -4 -7 -8 -4 -5
3 -19 -1 -33 -7 -13 -7 -62 -28 -109 -46 -47 -18 -98 -38 -115 -46 -25 -11
-55 -22 -85 -30 -3 -1 -23 -10 -45 -20 -22 -10 -42 -19 -45 -20 -10 -2 -125
-46 -155 -59 -16 -7 -52 -22 -80 -31 -27 -10 -55 -22 -61 -27 -6 -4 -19 -9
-30 -11 -10 -2 -39 -12 -64 -23 l-45 -21 1 -577 c1 -317 3 -579 6 -581 2 -3
52 16 109 41 57 25 118 52 134 59 17 7 53 23 80 35 28 12 64 28 80 35 17 8 56
25 87 39 32 14 69 28 82 32 14 3 30 12 37 20 6 8 17 14 24 14 11 0 316 129
400 170 44 21 117 53 125 54 3 1 39 16 80 34 41 19 84 37 95 42 11 5 51 23 88
39 38 17 70 31 72 31 3 0 35 14 72 31 38 17 88 39 113 49 25 10 77 33 115 51
39 18 75 34 80 35 6 1 56 22 112 47 56 25 104 43 107 39 3 -3 6 0 6 6 0 6 10
14 23 18 22 6 58 22 165 70 29 13 55 24 57 24 2 0 34 14 70 30 36 17 68 30 70
30 3 0 32 13 65 29 33 16 60 27 60 24 0 -3 7 1 16 8 9 7 21 14 28 15 7 1 33
11 59 23 51 23 125 56 172 76 17 7 53 23 80 36 28 12 55 23 60 24 6 2 40 17
77 34 36 17 68 31 71 31 3 0 39 16 80 35 41 19 80 35 88 35 7 0 20 6 28 13 9
7 43 24 76 37 33 13 87 36 120 51 33 15 114 50 180 78 66 29 134 58 150 65 17
8 44 19 60 26 17 7 37 16 45 21 8 5 22 12 30 15 85 33 120 51 125 62 3 8 0 10
-7 6 -7 -5 -8 -3 -3 6 11 17 13 140 3 146 -5 3 -4 13 0 22 10 21 9 123 -1 140
-5 6 -5 12 0 12 4 0 8 23 8 50 0 28 -4 50 -9 50 -5 0 -4 6 1 13 5 6 8 30 6 52
-4 50 -4 49 0 118 1 31 -2 57 -6 57 -6 0 -6 5 0 13 5 6 8 30 6 52 -4 49 -4 41
-1 144 3 73 0 87 -16 103 -11 10 -23 18 -28 18 -5 0 -30 10 -56 21 -26 12 -60
27 -77 34 -57 24 -180 77 -220 95 -35 15 -96 42 -225 97 -19 8 -63 28 -98 44
-35 16 -65 29 -67 29 -3 0 -34 14 -70 30 -36 17 -67 30 -70 30 -4 0 -72 29
-300 129 -80 35 -123 54 -140 61 -11 4 -42 18 -70 30 -27 12 -59 26 -70 31
-11 5 -63 27 -115 50 -101 44 -142 61 -150 64 -6 2 -75 32 -117 51 -18 8 -48
20 -65 28 -18 7 -60 26 -93 41 -33 15 -64 28 -70 29 -5 1 -36 14 -67 29 -32
14 -69 29 -83 33 -14 3 -25 10 -25 16 0 5 -4 6 -10 3 -5 -3 -10 -1 -10 4 0 6
-3 10 -7 9 -9 -1 -31 6 -90 33 -24 11 -82 35 -130 55 -49 20 -89 40 -91 45 -2
4 -10 5 -18 2 -8 -3 -14 0 -14 6 0 6 -6 11 -12 11 -7 0 -56 18 -108 41 -52 23
-113 50 -135 59 -22 10 -56 24 -75 33 -19 8 -52 22 -72 31 -21 9 -55 24 -75
33 -21 9 -42 18 -48 19 -5 1 -62 26 -125 54 -130 58 -161 72 -175 76 -11 3
-253 109 -343 150 -29 13 -55 24 -57 24 -2 0 -34 14 -70 30 -36 17 -68 30 -70
30 -2 0 -29 11 -59 25 -30 14 -58 25 -63 25 -4 0 -7 -255 -6 -567z"/>
</g>
</svg>
