<?xml version="1.0" encoding="UTF-8" standalone="no"?><!-- Generator: Gravit.io --><svg xmlns="http://www.w3.org/2000/svg" xmlns:xlink="http://www.w3.org/1999/xlink" style="isolation:isolate" viewBox="153.688 45.035 293.303 261.776" ><g><linearGradient id="_lgradient_1" x1="0.05012783658973796" y1="1.0149563228190719" x2="0.9217702196053039" y2="0.04383532291245118" gradientTransform="matrix(293.303,0,0,261.776,153.688,45.035)" gradientUnits="userSpaceOnUse"><stop offset="2.9166666666666665%" stop-opacity="1" style="stop-color:rgb(0,87,244)"/><stop offset="97.91666666666666%" stop-opacity="1" style="stop-color:rgb(2,250,239)"/></linearGradient><path d=" M 287.333 46.915 C 259.875 42 121.333 43.195 160.667 95.271 C 200 147.348 264 175.866 230 214.923 C 196 253.98 167.333 304.197 220.667 306.677 C 274 309.157 431.333 276.919 402.667 238.481 C 374 200.044 284 176.486 318 162.227 C 352 147.968 482 139.288 438 116.35 C 394 93.411 371.333 45.675 344.667 51.254 C 318 56.834 314.792 51.829 287.333 46.915 Z " fill="url(#_lgradient_1)"/><path d=" M 261.375 226.688 Q 262.5 238.313 257.438 252.375 Q 252.375 266.438 293.438 284.813 C 340.688 267 357.155 235.802 350.813 228.938 C 344.622 222.237 338.829 212.12 340.313 188.438 L 261.375 226.688 Z " fill="rgb(233,207,198)"/><path d=" M 268.125 226.875 C 270.213 241.478 272.739 248.972 277.674 261.75 C 280.623 263.526 280.58 243.815 280.58 238.125 C 280.58 232.426 281.159 227.026 277.674 229.125 C 273.967 231.357 270.559 229.526 268.125 226.875 Z " fill="rgb(161,124,112)"/><path d=" M 326.344 191.859 C 324.543 218.128 334.743 235.58 343.547 236.672 C 350.297 233.156 336.797 218.672 338.799 203.109 C 339.469 194.063 339.378 192.01 335.892 194.109 C 332.186 196.341 328.778 194.51 326.344 191.859 Z " fill="rgb(161,124,112)"/><path d=" M 340.875 152.5 C 344.813 181.188 339.301 206.814 324.422 217.688 Q 302.484 233.719 279.281 235.406 Q 262.153 235.208 247.219 203.555 C 241.466 191.362 240.563 175.546 239.203 159.047 C 239.034 156.993 240.291 153.69 240.047 151.664 C 238.57 139.43 239.077 127.3 240.68 114.328 C 243.488 100.989 249.557 93.643 258.5 91.375 C 271.028 88.198 266.2 96.635 273.625 97.625 C 281.164 98.63 298.588 87.502 300.586 86.484 C 308.086 82.663 313.734 86.402 322.625 93.625 C 333.696 102.618 337.612 117.355 335.813 135.633 L 340.875 152.5 Z " fill="rgb(233,207,198)"/><path d=" M 281.953 207.281 C 276.812 207.978 269.791 205.94 261 203 C 260.742 202.102 261.328 201.422 261.627 200.671 C 264.513 194.509 275.599 198.185 280.828 196.594 C 286.215 193.516 295.301 198.126 299.672 199 C 293.37 203.762 287.474 206.533 281.953 207.281 Z " fill="rgb(173,117,120)"/><path d=" M 261 203 C 266.73 201.853 272.385 200.802 278.195 200.292 C 280.542 200.086 282.915 199.969 285.328 199.969 C 295.02 200.507 301.31 198.886 303.422 197.953" fill="none"/><path d=" M 267 155 C 263.916 155.076 242.495 158.683 251.297 151.734 C 256.41 149.543 265.878 147.806 267 155 Z " fill="rgb(255,255,255)"/><path d=" M 295 151 C 299.058 144.294 310.551 145.581 316.406 149.484 C 317.052 154.647 297.006 151.679 295 151 Z " fill="rgb(255,255,255)"/><path d=" M 239 148 C 245.249 140.71 257.313 145.144 265.781 145.547 C 266.484 140.203 266.906 139.359 267 135.844 C 264.164 135.097 256.746 136.168 253.828 135.844 C 243.529 134.699 236.364 140.449 239 148 Z " fill="rgb(33,19,17)"/><path d=" M 287 144 C 295.046 138.269 305.58 139.168 315 139.922 C 320.035 140.551 330.035 145.67 326.109 139.781 C 324.485 137.345 322.428 136.351 320.063 135 C 313.395 131.19 301.148 130.055 295.172 132.047 C 290.905 133.469 287.748 134.282 284.906 135.703 C 284.906 135.703 286.594 144.703 287 144 Z " fill="rgb(29,15,13)"/><path d=" M 341 182 C 351.43 184.583 352.594 177.563 355.75 169 C 357.111 165.597 356.235 161.265 356 157 C 355.733 152.164 356 147.404 356 144 C 353.25 140.063 346.603 144.226 346 146.438 Q 345.066 149.861 342 158 L 341 182 Z " fill="rgb(233,207,198)"/><path d=" M 349 143 Q 353.53 128.277 355.25 120.25 C 357.761 112.718 361.137 99.959 355.25 95.25 C 351.306 92.095 349.496 90.165 346 89 C 338.558 86.519 344.5 81.482 344.5 76.5 C 344.5 68.871 326.641 60.609 322 65.25 C 318.967 68.283 300.778 55.132 297.25 54.25 C 287.598 51.837 279.19 53.25 270.5 53.25 C 260.174 53.25 252.04 58.807 245 63.5 C 239.81 66.96 223.722 79.889 229 77.25 C 231.61 75.945 240.065 74.706 241.5 76.5 C 242.223 77.404 232.122 82.846 231.25 83.5 C 225.093 88.118 223.154 105.346 227.25 101.25 C 236.428 92.072 228.75 109.806 228.75 114.25 C 228.75 129.485 235.5 120.075 235.5 130 C 235.5 134.649 238.5 137.177 238.5 140.75 L 240.469 114.328 Q 246.234 91.547 263.531 91.969 C 263.872 91.977 266.906 98.719 271.547 98.719 Q 277.666 100.319 301.078 86.484 C 308.694 81.984 324 89.156 332.719 112.781 Q 336.656 126.984 335.672 135.984 C 334.688 144.984 339.328 139.5 341.719 158.766 Q 344.109 178.031 345.797 146.109 L 349 143 Z " fill="rgb(15,6,3)"/><path d=" M 273 184 C 269.117 179.146 266.864 181.216 266.625 181.266" fill="rgb(161,124,112)"/><path d=" M 279.563 182 C 281.543 179.72 285.373 177.373 285.469 180" fill="rgb(161,124,112)"/><path d=" M 274.25 95.5 C 282.532 78.389 256.031 76.547 245.063 69.094 C 247.969 66.844 260.621 62.86 269 60.5 C 284.375 58.375 296.002 62.126 303 65.625 C 308.875 68.563 313.785 70.3 317.625 73.5 C 318.823 74.498 324.447 83.024 321.75 82.125 C 312 78.875 305.743 79.851 297.5 81.5 C 290.602 82.88 283.147 91.103 274.25 95.5 Z " fill="rgb(75,63,49)"/><path d=" M 246.909 97.5 C 243.615 90.695 254.155 89.962 258.518 86.997 C 258.124 78.94 224.515 81.921 227.391 98.016 C 231.269 96.723 234.383 91.276 237.662 91.932 C 240.406 92.481 243.371 95.751 246.909 97.5 Z " fill="rgb(75,63,49)"/><path d=" M 354.842 111.046 C 354.503 100.463 343.855 81.527 331.333 93.667 C 330.533 95.418 336.564 107.996 336.361 112.552 C 337.116 120.649 339.293 141.223 343.875 144.75 C 346.148 139.113 352.27 129.277 352.125 124.875 C 352.004 121.191 353.663 116.11 354.842 111.046 Z " fill="rgb(75,63,49)"/></g></svg>